<mxfile host="65bd71144e">
    <diagram id="kpqknKagmQrZLueV2JV0" name="Page-1">
        <mxGraphModel dx="2346" dy="1542" grid="0" gridSize="10" guides="1" tooltips="1" connect="1" arrows="1" fold="1" page="1" pageScale="1" pageWidth="4681" pageHeight="3300" math="0" shadow="0">
            <root>
                <mxCell id="0"/>
                <mxCell id="1" parent="0"/>
                <mxCell id="2" value="list1 (3060924684544)" style="swimlane;fontStyle=0;childLayout=stackLayout;horizontal=1;startSize=30;horizontalStack=0;resizeParent=1;resizeParentMax=0;resizeLast=0;collapsible=1;marginBottom=0;whiteSpace=wrap;html=1;sketch=1;hachureGap=4;jiggle=2;curveFitting=1;fontFamily=Helvetica;fontSize=20;" vertex="1" parent="1">
                    <mxGeometry x="170" y="270" width="276" height="150" as="geometry"/>
                </mxCell>
                <mxCell id="3" value="140732039489976" style="text;strokeColor=none;fillColor=none;align=left;verticalAlign=middle;spacingLeft=4;spacingRight=4;overflow=hidden;points=[[0,0.5],[1,0.5]];portConstraint=eastwest;rotatable=0;whiteSpace=wrap;html=1;fontSize=16;sketch=1;hachureGap=4;jiggle=2;curveFitting=1;fontFamily=Helvetica;" vertex="1" parent="2">
                    <mxGeometry y="30" width="276" height="30" as="geometry"/>
                </mxCell>
                <mxCell id="4" value="140732039490008" style="text;strokeColor=none;fillColor=none;align=left;verticalAlign=middle;spacingLeft=4;spacingRight=4;overflow=hidden;points=[[0,0.5],[1,0.5]];portConstraint=eastwest;rotatable=0;whiteSpace=wrap;html=1;fontSize=16;sketch=1;hachureGap=4;jiggle=2;curveFitting=1;fontFamily=Helvetica;" vertex="1" parent="2">
                    <mxGeometry y="60" width="276" height="30" as="geometry"/>
                </mxCell>
                <mxCell id="5" value="140732039490040" style="text;strokeColor=none;fillColor=none;align=left;verticalAlign=middle;spacingLeft=4;spacingRight=4;overflow=hidden;points=[[0,0.5],[1,0.5]];portConstraint=eastwest;rotatable=0;whiteSpace=wrap;html=1;fontSize=16;sketch=1;hachureGap=4;jiggle=2;curveFitting=1;fontFamily=Helvetica;" vertex="1" parent="2">
                    <mxGeometry y="90" width="276" height="30" as="geometry"/>
                </mxCell>
                <mxCell id="6" value="3060924682624" style="text;strokeColor=none;fillColor=none;align=left;verticalAlign=middle;spacingLeft=4;spacingRight=4;overflow=hidden;points=[[0,0.5],[1,0.5]];portConstraint=eastwest;rotatable=0;whiteSpace=wrap;html=1;fontSize=16;sketch=1;hachureGap=4;jiggle=2;curveFitting=1;fontFamily=Helvetica;" vertex="1" parent="2">
                    <mxGeometry y="120" width="276" height="30" as="geometry"/>
                </mxCell>
                <mxCell id="12" value="list2 (3060926299456)" style="swimlane;fontStyle=0;childLayout=stackLayout;horizontal=1;startSize=30;horizontalStack=0;resizeParent=1;resizeParentMax=0;resizeLast=0;collapsible=1;marginBottom=0;whiteSpace=wrap;html=1;sketch=1;hachureGap=4;jiggle=2;curveFitting=1;fontFamily=Helvetica;fontSize=20;" vertex="1" parent="1">
                    <mxGeometry x="690" y="270" width="276" height="150" as="geometry"/>
                </mxCell>
                <mxCell id="13" value="140732039489976" style="text;strokeColor=none;fillColor=none;align=left;verticalAlign=middle;spacingLeft=4;spacingRight=4;overflow=hidden;points=[[0,0.5],[1,0.5]];portConstraint=eastwest;rotatable=0;whiteSpace=wrap;html=1;fontSize=16;sketch=1;hachureGap=4;jiggle=2;curveFitting=1;fontFamily=Helvetica;" vertex="1" parent="12">
                    <mxGeometry y="30" width="276" height="30" as="geometry"/>
                </mxCell>
                <mxCell id="14" value="140732039490008" style="text;strokeColor=none;fillColor=none;align=left;verticalAlign=middle;spacingLeft=4;spacingRight=4;overflow=hidden;points=[[0,0.5],[1,0.5]];portConstraint=eastwest;rotatable=0;whiteSpace=wrap;html=1;fontSize=16;sketch=1;hachureGap=4;jiggle=2;curveFitting=1;fontFamily=Helvetica;" vertex="1" parent="12">
                    <mxGeometry y="60" width="276" height="30" as="geometry"/>
                </mxCell>
                <mxCell id="15" value="140732039490040" style="text;strokeColor=none;fillColor=none;align=left;verticalAlign=middle;spacingLeft=4;spacingRight=4;overflow=hidden;points=[[0,0.5],[1,0.5]];portConstraint=eastwest;rotatable=0;whiteSpace=wrap;html=1;fontSize=16;sketch=1;hachureGap=4;jiggle=2;curveFitting=1;fontFamily=Helvetica;" vertex="1" parent="12">
                    <mxGeometry y="90" width="276" height="30" as="geometry"/>
                </mxCell>
                <mxCell id="16" value="3060924682624" style="text;strokeColor=none;fillColor=none;align=left;verticalAlign=middle;spacingLeft=4;spacingRight=4;overflow=hidden;points=[[0,0.5],[1,0.5]];portConstraint=eastwest;rotatable=0;whiteSpace=wrap;html=1;fontSize=16;sketch=1;hachureGap=4;jiggle=2;curveFitting=1;fontFamily=Helvetica;" vertex="1" parent="12">
                    <mxGeometry y="120" width="276" height="30" as="geometry"/>
                </mxCell>
                <mxCell id="17" value="1" style="text;html=1;align=center;verticalAlign=middle;resizable=0;points=[];autosize=1;strokeColor=none;fillColor=none;fontSize=16;fontFamily=Helvetica;sketch=1;hachureGap=4;jiggle=2;curveFitting=1;" vertex="1" parent="1">
                    <mxGeometry x="554.5" y="300" width="27" height="31" as="geometry"/>
                </mxCell>
                <mxCell id="18" value="2" style="text;html=1;align=center;verticalAlign=middle;resizable=0;points=[];autosize=1;strokeColor=none;fillColor=none;fontSize=16;fontFamily=Helvetica;sketch=1;hachureGap=4;jiggle=2;curveFitting=1;fontSource=https%3A%2F%2Ffonts.googleapis.com%2Fcss%3Ffamily%3DArchitects%2BDaughter;" vertex="1" parent="1">
                    <mxGeometry x="554.5" y="329.5" width="27" height="31" as="geometry"/>
                </mxCell>
                <mxCell id="19" value="3" style="text;html=1;align=center;verticalAlign=middle;resizable=0;points=[];autosize=1;strokeColor=none;fillColor=none;fontSize=16;fontFamily=Helvetica;sketch=1;hachureGap=4;jiggle=2;curveFitting=1;fontSource=https%3A%2F%2Ffonts.googleapis.com%2Fcss%3Ffamily%3DArchitects%2BDaughter;" vertex="1" parent="1">
                    <mxGeometry x="554.5" y="361" width="27" height="31" as="geometry"/>
                </mxCell>
                <mxCell id="22" value="[ 100, 200, 300 ]" style="text;html=1;align=center;verticalAlign=middle;resizable=0;points=[];autosize=1;strokeColor=none;fillColor=none;fontSize=16;fontFamily=Helvetica;sketch=1;hachureGap=4;jiggle=2;curveFitting=1;fontSource=https%3A%2F%2Ffonts.googleapis.com%2Fcss%3Ffamily%3DArchitects%2BDaughter;" vertex="1" parent="1">
                    <mxGeometry x="501" y="392" width="134" height="31" as="geometry"/>
                </mxCell>
                <mxCell id="23" style="edgeStyle=none;sketch=1;hachureGap=4;jiggle=2;curveFitting=1;html=1;fontFamily=Helvetica;fontSize=16;" edge="1" parent="1" source="3" target="17">
                    <mxGeometry relative="1" as="geometry"/>
                </mxCell>
                <mxCell id="24" style="edgeStyle=none;sketch=1;hachureGap=4;jiggle=2;curveFitting=1;html=1;fontFamily=Helvetica;fontSize=16;" edge="1" parent="1" source="13">
                    <mxGeometry relative="1" as="geometry">
                        <mxPoint x="582" y="316" as="targetPoint"/>
                    </mxGeometry>
                </mxCell>
                <mxCell id="25" style="edgeStyle=none;sketch=1;hachureGap=4;jiggle=2;curveFitting=1;html=1;fontFamily=Helvetica;fontSize=16;entryX=-0.036;entryY=0.495;entryDx=0;entryDy=0;entryPerimeter=0;" edge="1" parent="1" source="4" target="18">
                    <mxGeometry relative="1" as="geometry">
                        <mxPoint x="551" y="343" as="targetPoint"/>
                    </mxGeometry>
                </mxCell>
                <mxCell id="26" style="edgeStyle=none;sketch=1;hachureGap=4;jiggle=2;curveFitting=1;html=1;fontFamily=Helvetica;fontSize=16;entryX=0.965;entryY=0.507;entryDx=0;entryDy=0;entryPerimeter=0;" edge="1" parent="1" source="14" target="18">
                    <mxGeometry relative="1" as="geometry"/>
                </mxCell>
                <mxCell id="27" style="edgeStyle=none;sketch=1;hachureGap=4;jiggle=2;curveFitting=1;html=1;fontFamily=Helvetica;fontSize=16;" edge="1" parent="1" source="5" target="19">
                    <mxGeometry relative="1" as="geometry"/>
                </mxCell>
                <mxCell id="28" style="edgeStyle=none;sketch=1;hachureGap=4;jiggle=2;curveFitting=1;html=1;fontFamily=Helvetica;fontSize=16;" edge="1" parent="1" source="15" target="19">
                    <mxGeometry relative="1" as="geometry"/>
                </mxCell>
                <mxCell id="29" style="edgeStyle=none;sketch=1;hachureGap=4;jiggle=2;curveFitting=1;html=1;fontFamily=Helvetica;fontSize=16;" edge="1" parent="1" source="6" target="22">
                    <mxGeometry relative="1" as="geometry"/>
                </mxCell>
                <mxCell id="30" style="edgeStyle=none;sketch=1;hachureGap=4;jiggle=2;curveFitting=1;html=1;fontFamily=Helvetica;fontSize=16;" edge="1" parent="1" source="16" target="22">
                    <mxGeometry relative="1" as="geometry"/>
                </mxCell>
                <mxCell id="31" value="" style="shape=flexArrow;endArrow=classic;html=1;sketch=1;hachureGap=4;jiggle=2;curveFitting=1;fontFamily=Helvetica;fontSize=16;" edge="1" parent="1">
                    <mxGeometry width="50" height="50" relative="1" as="geometry">
                        <mxPoint x="454" y="285" as="sourcePoint"/>
                        <mxPoint x="682" y="285" as="targetPoint"/>
                    </mxGeometry>
                </mxCell>
                <mxCell id="32" value="copy()" style="edgeLabel;html=1;align=center;verticalAlign=middle;resizable=0;points=[];fontSize=16;fontFamily=Helvetica;" vertex="1" connectable="0" parent="31">
                    <mxGeometry x="0.3213" y="-2" relative="1" as="geometry">
                        <mxPoint x="-37" y="-23" as="offset"/>
                    </mxGeometry>
                </mxCell>
                <mxCell id="33" value="list1 (3060924684544)" style="swimlane;fontStyle=0;childLayout=stackLayout;horizontal=1;startSize=30;horizontalStack=0;resizeParent=1;resizeParentMax=0;resizeLast=0;collapsible=1;marginBottom=0;whiteSpace=wrap;html=1;sketch=1;hachureGap=4;jiggle=2;curveFitting=1;fontFamily=Helvetica;fontSize=20;" vertex="1" parent="1">
                    <mxGeometry x="171" y="511" width="276" height="150" as="geometry"/>
                </mxCell>
                <mxCell id="34" value="140732039493144" style="text;strokeColor=none;fillColor=none;align=left;verticalAlign=middle;spacingLeft=4;spacingRight=4;overflow=hidden;points=[[0,0.5],[1,0.5]];portConstraint=eastwest;rotatable=0;whiteSpace=wrap;html=1;fontSize=16;sketch=1;hachureGap=4;jiggle=2;curveFitting=1;fontFamily=Helvetica;" vertex="1" parent="33">
                    <mxGeometry y="30" width="276" height="30" as="geometry"/>
                </mxCell>
                <mxCell id="35" value="140732039490008" style="text;strokeColor=none;fillColor=none;align=left;verticalAlign=middle;spacingLeft=4;spacingRight=4;overflow=hidden;points=[[0,0.5],[1,0.5]];portConstraint=eastwest;rotatable=0;whiteSpace=wrap;html=1;fontSize=16;sketch=1;hachureGap=4;jiggle=2;curveFitting=1;fontFamily=Helvetica;" vertex="1" parent="33">
                    <mxGeometry y="60" width="276" height="30" as="geometry"/>
                </mxCell>
                <mxCell id="36" value="140732039490040" style="text;strokeColor=none;fillColor=none;align=left;verticalAlign=middle;spacingLeft=4;spacingRight=4;overflow=hidden;points=[[0,0.5],[1,0.5]];portConstraint=eastwest;rotatable=0;whiteSpace=wrap;html=1;fontSize=16;sketch=1;hachureGap=4;jiggle=2;curveFitting=1;fontFamily=Helvetica;" vertex="1" parent="33">
                    <mxGeometry y="90" width="276" height="30" as="geometry"/>
                </mxCell>
                <mxCell id="37" value="3060924682624" style="text;strokeColor=none;fillColor=none;align=left;verticalAlign=middle;spacingLeft=4;spacingRight=4;overflow=hidden;points=[[0,0.5],[1,0.5]];portConstraint=eastwest;rotatable=0;whiteSpace=wrap;html=1;fontSize=16;sketch=1;hachureGap=4;jiggle=2;curveFitting=1;fontFamily=Helvetica;" vertex="1" parent="33">
                    <mxGeometry y="120" width="276" height="30" as="geometry"/>
                </mxCell>
                <mxCell id="38" value="list2 (3060926299456)" style="swimlane;fontStyle=0;childLayout=stackLayout;horizontal=1;startSize=30;horizontalStack=0;resizeParent=1;resizeParentMax=0;resizeLast=0;collapsible=1;marginBottom=0;whiteSpace=wrap;html=1;sketch=1;hachureGap=4;jiggle=2;curveFitting=1;fontFamily=Helvetica;fontSize=20;" vertex="1" parent="1">
                    <mxGeometry x="691" y="511" width="276" height="150" as="geometry"/>
                </mxCell>
                <mxCell id="39" value="140732039489976" style="text;strokeColor=none;fillColor=none;align=left;verticalAlign=middle;spacingLeft=4;spacingRight=4;overflow=hidden;points=[[0,0.5],[1,0.5]];portConstraint=eastwest;rotatable=0;whiteSpace=wrap;html=1;fontSize=16;sketch=1;hachureGap=4;jiggle=2;curveFitting=1;fontFamily=Helvetica;" vertex="1" parent="38">
                    <mxGeometry y="30" width="276" height="30" as="geometry"/>
                </mxCell>
                <mxCell id="40" value="140732039490008" style="text;strokeColor=none;fillColor=none;align=left;verticalAlign=middle;spacingLeft=4;spacingRight=4;overflow=hidden;points=[[0,0.5],[1,0.5]];portConstraint=eastwest;rotatable=0;whiteSpace=wrap;html=1;fontSize=16;sketch=1;hachureGap=4;jiggle=2;curveFitting=1;fontFamily=Helvetica;" vertex="1" parent="38">
                    <mxGeometry y="60" width="276" height="30" as="geometry"/>
                </mxCell>
                <mxCell id="41" value="140732039490040" style="text;strokeColor=none;fillColor=none;align=left;verticalAlign=middle;spacingLeft=4;spacingRight=4;overflow=hidden;points=[[0,0.5],[1,0.5]];portConstraint=eastwest;rotatable=0;whiteSpace=wrap;html=1;fontSize=16;sketch=1;hachureGap=4;jiggle=2;curveFitting=1;fontFamily=Helvetica;" vertex="1" parent="38">
                    <mxGeometry y="90" width="276" height="30" as="geometry"/>
                </mxCell>
                <mxCell id="42" value="3060924682624" style="text;strokeColor=none;fillColor=none;align=left;verticalAlign=middle;spacingLeft=4;spacingRight=4;overflow=hidden;points=[[0,0.5],[1,0.5]];portConstraint=eastwest;rotatable=0;whiteSpace=wrap;html=1;fontSize=16;sketch=1;hachureGap=4;jiggle=2;curveFitting=1;fontFamily=Helvetica;" vertex="1" parent="38">
                    <mxGeometry y="120" width="276" height="30" as="geometry"/>
                </mxCell>
                <mxCell id="43" value="1" style="text;html=1;align=center;verticalAlign=middle;resizable=0;points=[];autosize=1;strokeColor=none;fillColor=none;fontSize=16;fontFamily=Helvetica;sketch=1;hachureGap=4;jiggle=2;curveFitting=1;" vertex="1" parent="1">
                    <mxGeometry x="555.5" y="541" width="27" height="31" as="geometry"/>
                </mxCell>
                <mxCell id="44" value="2" style="text;html=1;align=center;verticalAlign=middle;resizable=0;points=[];autosize=1;strokeColor=none;fillColor=none;fontSize=16;fontFamily=Helvetica;sketch=1;hachureGap=4;jiggle=2;curveFitting=1;fontSource=https%3A%2F%2Ffonts.googleapis.com%2Fcss%3Ffamily%3DArchitects%2BDaughter;" vertex="1" parent="1">
                    <mxGeometry x="555.5" y="570.5" width="27" height="31" as="geometry"/>
                </mxCell>
                <mxCell id="45" value="3" style="text;html=1;align=center;verticalAlign=middle;resizable=0;points=[];autosize=1;strokeColor=none;fillColor=none;fontSize=16;fontFamily=Helvetica;sketch=1;hachureGap=4;jiggle=2;curveFitting=1;fontSource=https%3A%2F%2Ffonts.googleapis.com%2Fcss%3Ffamily%3DArchitects%2BDaughter;" vertex="1" parent="1">
                    <mxGeometry x="555.5" y="602" width="27" height="31" as="geometry"/>
                </mxCell>
                <mxCell id="46" value="[ 100, 200, 300 ]" style="text;html=1;align=center;verticalAlign=middle;resizable=0;points=[];autosize=1;strokeColor=none;fillColor=none;fontSize=16;fontFamily=Helvetica;sketch=1;hachureGap=4;jiggle=2;curveFitting=1;fontSource=https%3A%2F%2Ffonts.googleapis.com%2Fcss%3Ffamily%3DArchitects%2BDaughter;" vertex="1" parent="1">
                    <mxGeometry x="502" y="633" width="134" height="31" as="geometry"/>
                </mxCell>
                <mxCell id="48" style="edgeStyle=none;sketch=1;hachureGap=4;jiggle=2;curveFitting=1;html=1;fontFamily=Helvetica;fontSize=16;" edge="1" parent="1" source="39">
                    <mxGeometry relative="1" as="geometry">
                        <mxPoint x="583" y="557" as="targetPoint"/>
                    </mxGeometry>
                </mxCell>
                <mxCell id="49" style="edgeStyle=none;sketch=1;hachureGap=4;jiggle=2;curveFitting=1;html=1;fontFamily=Helvetica;fontSize=16;entryX=-0.036;entryY=0.495;entryDx=0;entryDy=0;entryPerimeter=0;" edge="1" parent="1" source="35" target="44">
                    <mxGeometry relative="1" as="geometry">
                        <mxPoint x="552" y="584" as="targetPoint"/>
                    </mxGeometry>
                </mxCell>
                <mxCell id="50" style="edgeStyle=none;sketch=1;hachureGap=4;jiggle=2;curveFitting=1;html=1;fontFamily=Helvetica;fontSize=16;entryX=0.965;entryY=0.507;entryDx=0;entryDy=0;entryPerimeter=0;" edge="1" parent="1" source="40" target="44">
                    <mxGeometry relative="1" as="geometry"/>
                </mxCell>
                <mxCell id="51" style="edgeStyle=none;sketch=1;hachureGap=4;jiggle=2;curveFitting=1;html=1;fontFamily=Helvetica;fontSize=16;" edge="1" parent="1" source="36" target="45">
                    <mxGeometry relative="1" as="geometry"/>
                </mxCell>
                <mxCell id="52" style="edgeStyle=none;sketch=1;hachureGap=4;jiggle=2;curveFitting=1;html=1;fontFamily=Helvetica;fontSize=16;" edge="1" parent="1" source="41" target="45">
                    <mxGeometry relative="1" as="geometry"/>
                </mxCell>
                <mxCell id="53" style="edgeStyle=none;sketch=1;hachureGap=4;jiggle=2;curveFitting=1;html=1;fontFamily=Helvetica;fontSize=16;" edge="1" parent="1" source="37" target="46">
                    <mxGeometry relative="1" as="geometry"/>
                </mxCell>
                <mxCell id="54" style="edgeStyle=none;sketch=1;hachureGap=4;jiggle=2;curveFitting=1;html=1;fontFamily=Helvetica;fontSize=16;" edge="1" parent="1" source="42" target="46">
                    <mxGeometry relative="1" as="geometry"/>
                </mxCell>
                <mxCell id="55" value="" style="shape=flexArrow;endArrow=classic;html=1;sketch=1;hachureGap=4;jiggle=2;curveFitting=1;fontFamily=Helvetica;fontSize=16;" edge="1" parent="1">
                    <mxGeometry width="50" height="50" relative="1" as="geometry">
                        <mxPoint x="455" y="526" as="sourcePoint"/>
                        <mxPoint x="683" y="526" as="targetPoint"/>
                    </mxGeometry>
                </mxCell>
                <mxCell id="56" value="copy()" style="edgeLabel;html=1;align=center;verticalAlign=middle;resizable=0;points=[];fontSize=16;fontFamily=Helvetica;" vertex="1" connectable="0" parent="55">
                    <mxGeometry x="0.3213" y="-2" relative="1" as="geometry">
                        <mxPoint x="-37" y="-23" as="offset"/>
                    </mxGeometry>
                </mxCell>
                <mxCell id="57" value="100" style="text;html=1;align=center;verticalAlign=middle;resizable=0;points=[];autosize=1;strokeColor=none;fillColor=none;fontSize=16;fontFamily=Helvetica;sketch=1;hachureGap=4;jiggle=2;curveFitting=1;fontSource=https%3A%2F%2Ffonts.googleapis.com%2Fcss%3Ffamily%3DArchitects%2BDaughter;" vertex="1" parent="1">
                    <mxGeometry x="77" y="539.5" width="45" height="31" as="geometry"/>
                </mxCell>
                <mxCell id="58" style="edgeStyle=none;sketch=1;hachureGap=4;jiggle=2;curveFitting=1;html=1;entryX=1.044;entryY=0.511;entryDx=0;entryDy=0;entryPerimeter=0;fontFamily=Helvetica;fontSize=16;" edge="1" parent="1" source="34" target="57">
                    <mxGeometry relative="1" as="geometry"/>
                </mxCell>
                <mxCell id="59" value="list1 (3060924684544)" style="swimlane;fontStyle=0;childLayout=stackLayout;horizontal=1;startSize=30;horizontalStack=0;resizeParent=1;resizeParentMax=0;resizeLast=0;collapsible=1;marginBottom=0;whiteSpace=wrap;html=1;sketch=1;hachureGap=4;jiggle=2;curveFitting=1;fontFamily=Helvetica;fontSize=20;" vertex="1" parent="1">
                    <mxGeometry x="180" y="716" width="276" height="150" as="geometry"/>
                </mxCell>
                <mxCell id="60" value="140732039493144" style="text;strokeColor=none;fillColor=none;align=left;verticalAlign=middle;spacingLeft=4;spacingRight=4;overflow=hidden;points=[[0,0.5],[1,0.5]];portConstraint=eastwest;rotatable=0;whiteSpace=wrap;html=1;fontSize=16;sketch=1;hachureGap=4;jiggle=2;curveFitting=1;fontFamily=Helvetica;" vertex="1" parent="59">
                    <mxGeometry y="30" width="276" height="30" as="geometry"/>
                </mxCell>
                <mxCell id="61" value="140732039490008" style="text;strokeColor=none;fillColor=none;align=left;verticalAlign=middle;spacingLeft=4;spacingRight=4;overflow=hidden;points=[[0,0.5],[1,0.5]];portConstraint=eastwest;rotatable=0;whiteSpace=wrap;html=1;fontSize=16;sketch=1;hachureGap=4;jiggle=2;curveFitting=1;fontFamily=Helvetica;" vertex="1" parent="59">
                    <mxGeometry y="60" width="276" height="30" as="geometry"/>
                </mxCell>
                <mxCell id="62" value="140732039490040" style="text;strokeColor=none;fillColor=none;align=left;verticalAlign=middle;spacingLeft=4;spacingRight=4;overflow=hidden;points=[[0,0.5],[1,0.5]];portConstraint=eastwest;rotatable=0;whiteSpace=wrap;html=1;fontSize=16;sketch=1;hachureGap=4;jiggle=2;curveFitting=1;fontFamily=Helvetica;" vertex="1" parent="59">
                    <mxGeometry y="90" width="276" height="30" as="geometry"/>
                </mxCell>
                <mxCell id="63" value="3060924682624" style="text;strokeColor=none;fillColor=none;align=left;verticalAlign=middle;spacingLeft=4;spacingRight=4;overflow=hidden;points=[[0,0.5],[1,0.5]];portConstraint=eastwest;rotatable=0;whiteSpace=wrap;html=1;fontSize=16;sketch=1;hachureGap=4;jiggle=2;curveFitting=1;fontFamily=Helvetica;" vertex="1" parent="59">
                    <mxGeometry y="120" width="276" height="30" as="geometry"/>
                </mxCell>
                <mxCell id="64" value="list2 (3060926299456)" style="swimlane;fontStyle=0;childLayout=stackLayout;horizontal=1;startSize=30;horizontalStack=0;resizeParent=1;resizeParentMax=0;resizeLast=0;collapsible=1;marginBottom=0;whiteSpace=wrap;html=1;sketch=1;hachureGap=4;jiggle=2;curveFitting=1;fontFamily=Helvetica;fontSize=20;" vertex="1" parent="1">
                    <mxGeometry x="700" y="716" width="276" height="150" as="geometry"/>
                </mxCell>
                <mxCell id="65" value="140732039489976" style="text;strokeColor=none;fillColor=none;align=left;verticalAlign=middle;spacingLeft=4;spacingRight=4;overflow=hidden;points=[[0,0.5],[1,0.5]];portConstraint=eastwest;rotatable=0;whiteSpace=wrap;html=1;fontSize=16;sketch=1;hachureGap=4;jiggle=2;curveFitting=1;fontFamily=Helvetica;" vertex="1" parent="64">
                    <mxGeometry y="30" width="276" height="30" as="geometry"/>
                </mxCell>
                <mxCell id="66" value="140732039490008" style="text;strokeColor=none;fillColor=none;align=left;verticalAlign=middle;spacingLeft=4;spacingRight=4;overflow=hidden;points=[[0,0.5],[1,0.5]];portConstraint=eastwest;rotatable=0;whiteSpace=wrap;html=1;fontSize=16;sketch=1;hachureGap=4;jiggle=2;curveFitting=1;fontFamily=Helvetica;" vertex="1" parent="64">
                    <mxGeometry y="60" width="276" height="30" as="geometry"/>
                </mxCell>
                <mxCell id="67" value="140732039490040" style="text;strokeColor=none;fillColor=none;align=left;verticalAlign=middle;spacingLeft=4;spacingRight=4;overflow=hidden;points=[[0,0.5],[1,0.5]];portConstraint=eastwest;rotatable=0;whiteSpace=wrap;html=1;fontSize=16;sketch=1;hachureGap=4;jiggle=2;curveFitting=1;fontFamily=Helvetica;" vertex="1" parent="64">
                    <mxGeometry y="90" width="276" height="30" as="geometry"/>
                </mxCell>
                <mxCell id="68" value="3060924682624" style="text;strokeColor=none;fillColor=none;align=left;verticalAlign=middle;spacingLeft=4;spacingRight=4;overflow=hidden;points=[[0,0.5],[1,0.5]];portConstraint=eastwest;rotatable=0;whiteSpace=wrap;html=1;fontSize=16;sketch=1;hachureGap=4;jiggle=2;curveFitting=1;fontFamily=Helvetica;" vertex="1" parent="64">
                    <mxGeometry y="120" width="276" height="30" as="geometry"/>
                </mxCell>
                <mxCell id="69" value="1" style="text;html=1;align=center;verticalAlign=middle;resizable=0;points=[];autosize=1;strokeColor=none;fillColor=none;fontSize=16;fontFamily=Helvetica;sketch=1;hachureGap=4;jiggle=2;curveFitting=1;" vertex="1" parent="1">
                    <mxGeometry x="564.5" y="746" width="27" height="31" as="geometry"/>
                </mxCell>
                <mxCell id="70" value="2" style="text;html=1;align=center;verticalAlign=middle;resizable=0;points=[];autosize=1;strokeColor=none;fillColor=none;fontSize=16;fontFamily=Helvetica;sketch=1;hachureGap=4;jiggle=2;curveFitting=1;fontSource=https%3A%2F%2Ffonts.googleapis.com%2Fcss%3Ffamily%3DArchitects%2BDaughter;" vertex="1" parent="1">
                    <mxGeometry x="564.5" y="775.5" width="27" height="31" as="geometry"/>
                </mxCell>
                <mxCell id="71" value="3" style="text;html=1;align=center;verticalAlign=middle;resizable=0;points=[];autosize=1;strokeColor=none;fillColor=none;fontSize=16;fontFamily=Helvetica;sketch=1;hachureGap=4;jiggle=2;curveFitting=1;fontSource=https%3A%2F%2Ffonts.googleapis.com%2Fcss%3Ffamily%3DArchitects%2BDaughter;" vertex="1" parent="1">
                    <mxGeometry x="564.5" y="807" width="27" height="31" as="geometry"/>
                </mxCell>
                <mxCell id="72" value="[ 100, 200, 300, 400 ]" style="text;html=1;align=center;verticalAlign=middle;resizable=0;points=[];autosize=1;strokeColor=none;fillColor=none;fontSize=16;fontFamily=Helvetica;sketch=1;hachureGap=4;jiggle=2;curveFitting=1;fontSource=https%3A%2F%2Ffonts.googleapis.com%2Fcss%3Ffamily%3DArchitects%2BDaughter;" vertex="1" parent="1">
                    <mxGeometry x="494" y="838" width="169" height="31" as="geometry"/>
                </mxCell>
                <mxCell id="73" style="edgeStyle=none;sketch=1;hachureGap=4;jiggle=2;curveFitting=1;html=1;fontFamily=Helvetica;fontSize=16;" edge="1" parent="1" source="65">
                    <mxGeometry relative="1" as="geometry">
                        <mxPoint x="592" y="762" as="targetPoint"/>
                    </mxGeometry>
                </mxCell>
                <mxCell id="74" style="edgeStyle=none;sketch=1;hachureGap=4;jiggle=2;curveFitting=1;html=1;fontFamily=Helvetica;fontSize=16;entryX=-0.036;entryY=0.495;entryDx=0;entryDy=0;entryPerimeter=0;" edge="1" parent="1" source="61" target="70">
                    <mxGeometry relative="1" as="geometry">
                        <mxPoint x="561" y="789" as="targetPoint"/>
                    </mxGeometry>
                </mxCell>
                <mxCell id="75" style="edgeStyle=none;sketch=1;hachureGap=4;jiggle=2;curveFitting=1;html=1;fontFamily=Helvetica;fontSize=16;entryX=0.965;entryY=0.507;entryDx=0;entryDy=0;entryPerimeter=0;" edge="1" parent="1" source="66" target="70">
                    <mxGeometry relative="1" as="geometry"/>
                </mxCell>
                <mxCell id="76" style="edgeStyle=none;sketch=1;hachureGap=4;jiggle=2;curveFitting=1;html=1;fontFamily=Helvetica;fontSize=16;" edge="1" parent="1" source="62" target="71">
                    <mxGeometry relative="1" as="geometry"/>
                </mxCell>
                <mxCell id="77" style="edgeStyle=none;sketch=1;hachureGap=4;jiggle=2;curveFitting=1;html=1;fontFamily=Helvetica;fontSize=16;" edge="1" parent="1" source="67" target="71">
                    <mxGeometry relative="1" as="geometry"/>
                </mxCell>
                <mxCell id="78" style="edgeStyle=none;sketch=1;hachureGap=4;jiggle=2;curveFitting=1;html=1;fontFamily=Helvetica;fontSize=16;" edge="1" parent="1" source="63" target="72">
                    <mxGeometry relative="1" as="geometry"/>
                </mxCell>
                <mxCell id="79" style="edgeStyle=none;sketch=1;hachureGap=4;jiggle=2;curveFitting=1;html=1;fontFamily=Helvetica;fontSize=16;" edge="1" parent="1" source="68" target="72">
                    <mxGeometry relative="1" as="geometry"/>
                </mxCell>
                <mxCell id="80" value="" style="shape=flexArrow;endArrow=classic;html=1;sketch=1;hachureGap=4;jiggle=2;curveFitting=1;fontFamily=Helvetica;fontSize=16;" edge="1" parent="1">
                    <mxGeometry width="50" height="50" relative="1" as="geometry">
                        <mxPoint x="464" y="731" as="sourcePoint"/>
                        <mxPoint x="692" y="731" as="targetPoint"/>
                    </mxGeometry>
                </mxCell>
                <mxCell id="81" value="copy()" style="edgeLabel;html=1;align=center;verticalAlign=middle;resizable=0;points=[];fontSize=16;fontFamily=Helvetica;" vertex="1" connectable="0" parent="80">
                    <mxGeometry x="0.3213" y="-2" relative="1" as="geometry">
                        <mxPoint x="-37" y="-23" as="offset"/>
                    </mxGeometry>
                </mxCell>
                <mxCell id="82" value="100" style="text;html=1;align=center;verticalAlign=middle;resizable=0;points=[];autosize=1;strokeColor=none;fillColor=none;fontSize=16;fontFamily=Helvetica;sketch=1;hachureGap=4;jiggle=2;curveFitting=1;fontSource=https%3A%2F%2Ffonts.googleapis.com%2Fcss%3Ffamily%3DArchitects%2BDaughter;" vertex="1" parent="1">
                    <mxGeometry x="86" y="744.5" width="45" height="31" as="geometry"/>
                </mxCell>
                <mxCell id="83" style="edgeStyle=none;sketch=1;hachureGap=4;jiggle=2;curveFitting=1;html=1;entryX=1.044;entryY=0.511;entryDx=0;entryDy=0;entryPerimeter=0;fontFamily=Helvetica;fontSize=16;" edge="1" parent="1" source="60" target="82">
                    <mxGeometry relative="1" as="geometry"/>
                </mxCell>
                <mxCell id="85" value="list1 (3060924684544)" style="swimlane;fontStyle=0;childLayout=stackLayout;horizontal=1;startSize=30;horizontalStack=0;resizeParent=1;resizeParentMax=0;resizeLast=0;collapsible=1;marginBottom=0;whiteSpace=wrap;html=1;sketch=1;hachureGap=4;jiggle=2;curveFitting=1;fontFamily=Helvetica;fontSize=20;" vertex="1" parent="1">
                    <mxGeometry x="1225" y="278" width="276" height="150" as="geometry"/>
                </mxCell>
                <mxCell id="86" value="140732039489976" style="text;strokeColor=none;fillColor=none;align=left;verticalAlign=middle;spacingLeft=4;spacingRight=4;overflow=hidden;points=[[0,0.5],[1,0.5]];portConstraint=eastwest;rotatable=0;whiteSpace=wrap;html=1;fontSize=16;sketch=1;hachureGap=4;jiggle=2;curveFitting=1;fontFamily=Helvetica;" vertex="1" parent="85">
                    <mxGeometry y="30" width="276" height="30" as="geometry"/>
                </mxCell>
                <mxCell id="87" value="140732039490008" style="text;strokeColor=none;fillColor=none;align=left;verticalAlign=middle;spacingLeft=4;spacingRight=4;overflow=hidden;points=[[0,0.5],[1,0.5]];portConstraint=eastwest;rotatable=0;whiteSpace=wrap;html=1;fontSize=16;sketch=1;hachureGap=4;jiggle=2;curveFitting=1;fontFamily=Helvetica;" vertex="1" parent="85">
                    <mxGeometry y="60" width="276" height="30" as="geometry"/>
                </mxCell>
                <mxCell id="88" value="140732039490040" style="text;strokeColor=none;fillColor=none;align=left;verticalAlign=middle;spacingLeft=4;spacingRight=4;overflow=hidden;points=[[0,0.5],[1,0.5]];portConstraint=eastwest;rotatable=0;whiteSpace=wrap;html=1;fontSize=16;sketch=1;hachureGap=4;jiggle=2;curveFitting=1;fontFamily=Helvetica;" vertex="1" parent="85">
                    <mxGeometry y="90" width="276" height="30" as="geometry"/>
                </mxCell>
                <mxCell id="89" value="3060924682624" style="text;strokeColor=none;fillColor=none;align=left;verticalAlign=middle;spacingLeft=4;spacingRight=4;overflow=hidden;points=[[0,0.5],[1,0.5]];portConstraint=eastwest;rotatable=0;whiteSpace=wrap;html=1;fontSize=16;sketch=1;hachureGap=4;jiggle=2;curveFitting=1;fontFamily=Helvetica;" vertex="1" parent="85">
                    <mxGeometry y="120" width="276" height="30" as="geometry"/>
                </mxCell>
                <mxCell id="90" value="list2 (3060926299520)" style="swimlane;fontStyle=0;childLayout=stackLayout;horizontal=1;startSize=30;horizontalStack=0;resizeParent=1;resizeParentMax=0;resizeLast=0;collapsible=1;marginBottom=0;whiteSpace=wrap;html=1;sketch=1;hachureGap=4;jiggle=2;curveFitting=1;fontFamily=Helvetica;fontSize=20;" vertex="1" parent="1">
                    <mxGeometry x="1745" y="278" width="276" height="150" as="geometry"/>
                </mxCell>
                <mxCell id="91" value="140732039489976" style="text;strokeColor=none;fillColor=none;align=left;verticalAlign=middle;spacingLeft=4;spacingRight=4;overflow=hidden;points=[[0,0.5],[1,0.5]];portConstraint=eastwest;rotatable=0;whiteSpace=wrap;html=1;fontSize=16;sketch=1;hachureGap=4;jiggle=2;curveFitting=1;fontFamily=Helvetica;" vertex="1" parent="90">
                    <mxGeometry y="30" width="276" height="30" as="geometry"/>
                </mxCell>
                <mxCell id="92" value="140732039490008" style="text;strokeColor=none;fillColor=none;align=left;verticalAlign=middle;spacingLeft=4;spacingRight=4;overflow=hidden;points=[[0,0.5],[1,0.5]];portConstraint=eastwest;rotatable=0;whiteSpace=wrap;html=1;fontSize=16;sketch=1;hachureGap=4;jiggle=2;curveFitting=1;fontFamily=Helvetica;" vertex="1" parent="90">
                    <mxGeometry y="60" width="276" height="30" as="geometry"/>
                </mxCell>
                <mxCell id="93" value="140732039490040" style="text;strokeColor=none;fillColor=none;align=left;verticalAlign=middle;spacingLeft=4;spacingRight=4;overflow=hidden;points=[[0,0.5],[1,0.5]];portConstraint=eastwest;rotatable=0;whiteSpace=wrap;html=1;fontSize=16;sketch=1;hachureGap=4;jiggle=2;curveFitting=1;fontFamily=Helvetica;" vertex="1" parent="90">
                    <mxGeometry y="90" width="276" height="30" as="geometry"/>
                </mxCell>
                <mxCell id="94" value="3060926299584" style="text;strokeColor=none;fillColor=none;align=left;verticalAlign=middle;spacingLeft=4;spacingRight=4;overflow=hidden;points=[[0,0.5],[1,0.5]];portConstraint=eastwest;rotatable=0;whiteSpace=wrap;html=1;fontSize=16;sketch=1;hachureGap=4;jiggle=2;curveFitting=1;fontFamily=Helvetica;" vertex="1" parent="90">
                    <mxGeometry y="120" width="276" height="30" as="geometry"/>
                </mxCell>
                <mxCell id="95" value="1" style="text;html=1;align=center;verticalAlign=middle;resizable=0;points=[];autosize=1;strokeColor=none;fillColor=none;fontSize=16;fontFamily=Helvetica;sketch=1;hachureGap=4;jiggle=2;curveFitting=1;" vertex="1" parent="1">
                    <mxGeometry x="1609.5" y="308" width="27" height="31" as="geometry"/>
                </mxCell>
                <mxCell id="96" value="2" style="text;html=1;align=center;verticalAlign=middle;resizable=0;points=[];autosize=1;strokeColor=none;fillColor=none;fontSize=16;fontFamily=Helvetica;sketch=1;hachureGap=4;jiggle=2;curveFitting=1;fontSource=https%3A%2F%2Ffonts.googleapis.com%2Fcss%3Ffamily%3DArchitects%2BDaughter;" vertex="1" parent="1">
                    <mxGeometry x="1609.5" y="337.5" width="27" height="31" as="geometry"/>
                </mxCell>
                <mxCell id="97" value="3" style="text;html=1;align=center;verticalAlign=middle;resizable=0;points=[];autosize=1;strokeColor=none;fillColor=none;fontSize=16;fontFamily=Helvetica;sketch=1;hachureGap=4;jiggle=2;curveFitting=1;fontSource=https%3A%2F%2Ffonts.googleapis.com%2Fcss%3Ffamily%3DArchitects%2BDaughter;" vertex="1" parent="1">
                    <mxGeometry x="1609.5" y="369" width="27" height="31" as="geometry"/>
                </mxCell>
                <mxCell id="98" value="[ 100, 200, 300 ]" style="text;html=1;align=center;verticalAlign=middle;resizable=0;points=[];autosize=1;strokeColor=none;fillColor=none;fontSize=16;fontFamily=Helvetica;sketch=1;hachureGap=4;jiggle=2;curveFitting=1;fontSource=https%3A%2F%2Ffonts.googleapis.com%2Fcss%3Ffamily%3DArchitects%2BDaughter;" vertex="1" parent="1">
                    <mxGeometry x="1556" y="400" width="134" height="31" as="geometry"/>
                </mxCell>
                <mxCell id="99" style="edgeStyle=none;sketch=1;hachureGap=4;jiggle=2;curveFitting=1;html=1;fontFamily=Helvetica;fontSize=16;" edge="1" parent="1" source="86" target="95">
                    <mxGeometry relative="1" as="geometry"/>
                </mxCell>
                <mxCell id="100" style="edgeStyle=none;sketch=1;hachureGap=4;jiggle=2;curveFitting=1;html=1;fontFamily=Helvetica;fontSize=16;" edge="1" parent="1" source="91">
                    <mxGeometry relative="1" as="geometry">
                        <mxPoint x="1636.9999999999995" y="324.0000000000002" as="targetPoint"/>
                    </mxGeometry>
                </mxCell>
                <mxCell id="101" style="edgeStyle=none;sketch=1;hachureGap=4;jiggle=2;curveFitting=1;html=1;fontFamily=Helvetica;fontSize=16;entryX=-0.036;entryY=0.495;entryDx=0;entryDy=0;entryPerimeter=0;" edge="1" parent="1" source="87" target="96">
                    <mxGeometry relative="1" as="geometry">
                        <mxPoint x="1606" y="351" as="targetPoint"/>
                    </mxGeometry>
                </mxCell>
                <mxCell id="102" style="edgeStyle=none;sketch=1;hachureGap=4;jiggle=2;curveFitting=1;html=1;fontFamily=Helvetica;fontSize=16;entryX=0.965;entryY=0.507;entryDx=0;entryDy=0;entryPerimeter=0;" edge="1" parent="1" source="92" target="96">
                    <mxGeometry relative="1" as="geometry"/>
                </mxCell>
                <mxCell id="103" style="edgeStyle=none;sketch=1;hachureGap=4;jiggle=2;curveFitting=1;html=1;fontFamily=Helvetica;fontSize=16;" edge="1" parent="1" source="88" target="97">
                    <mxGeometry relative="1" as="geometry"/>
                </mxCell>
                <mxCell id="104" style="edgeStyle=none;sketch=1;hachureGap=4;jiggle=2;curveFitting=1;html=1;fontFamily=Helvetica;fontSize=16;" edge="1" parent="1" source="93" target="97">
                    <mxGeometry relative="1" as="geometry"/>
                </mxCell>
                <mxCell id="105" style="edgeStyle=none;sketch=1;hachureGap=4;jiggle=2;curveFitting=1;html=1;fontFamily=Helvetica;fontSize=16;" edge="1" parent="1" source="89" target="98">
                    <mxGeometry relative="1" as="geometry"/>
                </mxCell>
                <mxCell id="107" value="" style="shape=flexArrow;endArrow=classic;html=1;sketch=1;hachureGap=4;jiggle=2;curveFitting=1;fontFamily=Helvetica;fontSize=16;" edge="1" parent="1">
                    <mxGeometry width="50" height="50" relative="1" as="geometry">
                        <mxPoint x="1509" y="293" as="sourcePoint"/>
                        <mxPoint x="1737.0000000000005" y="293" as="targetPoint"/>
                    </mxGeometry>
                </mxCell>
                <mxCell id="108" value="deepcopy()" style="edgeLabel;html=1;align=center;verticalAlign=middle;resizable=0;points=[];fontSize=16;fontFamily=Helvetica;" vertex="1" connectable="0" parent="107">
                    <mxGeometry x="0.3213" y="-2" relative="1" as="geometry">
                        <mxPoint x="-37" y="-23" as="offset"/>
                    </mxGeometry>
                </mxCell>
                <mxCell id="109" value="list1 (3060924684544)" style="swimlane;fontStyle=0;childLayout=stackLayout;horizontal=1;startSize=30;horizontalStack=0;resizeParent=1;resizeParentMax=0;resizeLast=0;collapsible=1;marginBottom=0;whiteSpace=wrap;html=1;sketch=1;hachureGap=4;jiggle=2;curveFitting=1;fontFamily=Helvetica;fontSize=20;" vertex="1" parent="1">
                    <mxGeometry x="1226" y="519" width="276" height="150" as="geometry"/>
                </mxCell>
                <mxCell id="110" value="140732039493144" style="text;strokeColor=none;fillColor=none;align=left;verticalAlign=middle;spacingLeft=4;spacingRight=4;overflow=hidden;points=[[0,0.5],[1,0.5]];portConstraint=eastwest;rotatable=0;whiteSpace=wrap;html=1;fontSize=16;sketch=1;hachureGap=4;jiggle=2;curveFitting=1;fontFamily=Helvetica;" vertex="1" parent="109">
                    <mxGeometry y="30" width="276" height="30" as="geometry"/>
                </mxCell>
                <mxCell id="111" value="140732039490008" style="text;strokeColor=none;fillColor=none;align=left;verticalAlign=middle;spacingLeft=4;spacingRight=4;overflow=hidden;points=[[0,0.5],[1,0.5]];portConstraint=eastwest;rotatable=0;whiteSpace=wrap;html=1;fontSize=16;sketch=1;hachureGap=4;jiggle=2;curveFitting=1;fontFamily=Helvetica;" vertex="1" parent="109">
                    <mxGeometry y="60" width="276" height="30" as="geometry"/>
                </mxCell>
                <mxCell id="112" value="140732039490040" style="text;strokeColor=none;fillColor=none;align=left;verticalAlign=middle;spacingLeft=4;spacingRight=4;overflow=hidden;points=[[0,0.5],[1,0.5]];portConstraint=eastwest;rotatable=0;whiteSpace=wrap;html=1;fontSize=16;sketch=1;hachureGap=4;jiggle=2;curveFitting=1;fontFamily=Helvetica;" vertex="1" parent="109">
                    <mxGeometry y="90" width="276" height="30" as="geometry"/>
                </mxCell>
                <mxCell id="113" value="3060924682624" style="text;strokeColor=none;fillColor=none;align=left;verticalAlign=middle;spacingLeft=4;spacingRight=4;overflow=hidden;points=[[0,0.5],[1,0.5]];portConstraint=eastwest;rotatable=0;whiteSpace=wrap;html=1;fontSize=16;sketch=1;hachureGap=4;jiggle=2;curveFitting=1;fontFamily=Helvetica;" vertex="1" parent="109">
                    <mxGeometry y="120" width="276" height="30" as="geometry"/>
                </mxCell>
                <mxCell id="114" value="list2 (3060926299456)" style="swimlane;fontStyle=0;childLayout=stackLayout;horizontal=1;startSize=30;horizontalStack=0;resizeParent=1;resizeParentMax=0;resizeLast=0;collapsible=1;marginBottom=0;whiteSpace=wrap;html=1;sketch=1;hachureGap=4;jiggle=2;curveFitting=1;fontFamily=Helvetica;fontSize=20;" vertex="1" parent="1">
                    <mxGeometry x="1746" y="519" width="276" height="150" as="geometry"/>
                </mxCell>
                <mxCell id="115" value="140732039489976" style="text;strokeColor=none;fillColor=none;align=left;verticalAlign=middle;spacingLeft=4;spacingRight=4;overflow=hidden;points=[[0,0.5],[1,0.5]];portConstraint=eastwest;rotatable=0;whiteSpace=wrap;html=1;fontSize=16;sketch=1;hachureGap=4;jiggle=2;curveFitting=1;fontFamily=Helvetica;" vertex="1" parent="114">
                    <mxGeometry y="30" width="276" height="30" as="geometry"/>
                </mxCell>
                <mxCell id="116" value="140732039490008" style="text;strokeColor=none;fillColor=none;align=left;verticalAlign=middle;spacingLeft=4;spacingRight=4;overflow=hidden;points=[[0,0.5],[1,0.5]];portConstraint=eastwest;rotatable=0;whiteSpace=wrap;html=1;fontSize=16;sketch=1;hachureGap=4;jiggle=2;curveFitting=1;fontFamily=Helvetica;" vertex="1" parent="114">
                    <mxGeometry y="60" width="276" height="30" as="geometry"/>
                </mxCell>
                <mxCell id="117" value="140732039490040" style="text;strokeColor=none;fillColor=none;align=left;verticalAlign=middle;spacingLeft=4;spacingRight=4;overflow=hidden;points=[[0,0.5],[1,0.5]];portConstraint=eastwest;rotatable=0;whiteSpace=wrap;html=1;fontSize=16;sketch=1;hachureGap=4;jiggle=2;curveFitting=1;fontFamily=Helvetica;" vertex="1" parent="114">
                    <mxGeometry y="90" width="276" height="30" as="geometry"/>
                </mxCell>
                <mxCell id="118" value="3060926299584" style="text;strokeColor=none;fillColor=none;align=left;verticalAlign=middle;spacingLeft=4;spacingRight=4;overflow=hidden;points=[[0,0.5],[1,0.5]];portConstraint=eastwest;rotatable=0;whiteSpace=wrap;html=1;fontSize=16;sketch=1;hachureGap=4;jiggle=2;curveFitting=1;fontFamily=Helvetica;" vertex="1" parent="114">
                    <mxGeometry y="120" width="276" height="30" as="geometry"/>
                </mxCell>
                <mxCell id="119" value="1" style="text;html=1;align=center;verticalAlign=middle;resizable=0;points=[];autosize=1;strokeColor=none;fillColor=none;fontSize=16;fontFamily=Helvetica;sketch=1;hachureGap=4;jiggle=2;curveFitting=1;" vertex="1" parent="1">
                    <mxGeometry x="1610.5" y="549" width="27" height="31" as="geometry"/>
                </mxCell>
                <mxCell id="120" value="2" style="text;html=1;align=center;verticalAlign=middle;resizable=0;points=[];autosize=1;strokeColor=none;fillColor=none;fontSize=16;fontFamily=Helvetica;sketch=1;hachureGap=4;jiggle=2;curveFitting=1;fontSource=https%3A%2F%2Ffonts.googleapis.com%2Fcss%3Ffamily%3DArchitects%2BDaughter;" vertex="1" parent="1">
                    <mxGeometry x="1610.5" y="578.5" width="27" height="31" as="geometry"/>
                </mxCell>
                <mxCell id="121" value="3" style="text;html=1;align=center;verticalAlign=middle;resizable=0;points=[];autosize=1;strokeColor=none;fillColor=none;fontSize=16;fontFamily=Helvetica;sketch=1;hachureGap=4;jiggle=2;curveFitting=1;fontSource=https%3A%2F%2Ffonts.googleapis.com%2Fcss%3Ffamily%3DArchitects%2BDaughter;" vertex="1" parent="1">
                    <mxGeometry x="1610.5" y="610" width="27" height="31" as="geometry"/>
                </mxCell>
                <mxCell id="122" value="[ 100, 200, 300 ]" style="text;html=1;align=center;verticalAlign=middle;resizable=0;points=[];autosize=1;strokeColor=none;fillColor=none;fontSize=16;fontFamily=Helvetica;sketch=1;hachureGap=4;jiggle=2;curveFitting=1;fontSource=https%3A%2F%2Ffonts.googleapis.com%2Fcss%3Ffamily%3DArchitects%2BDaughter;" vertex="1" parent="1">
                    <mxGeometry x="1557" y="641" width="134" height="31" as="geometry"/>
                </mxCell>
                <mxCell id="123" style="edgeStyle=none;sketch=1;hachureGap=4;jiggle=2;curveFitting=1;html=1;fontFamily=Helvetica;fontSize=16;" edge="1" parent="1" source="115">
                    <mxGeometry relative="1" as="geometry">
                        <mxPoint x="1638" y="565" as="targetPoint"/>
                    </mxGeometry>
                </mxCell>
                <mxCell id="124" style="edgeStyle=none;sketch=1;hachureGap=4;jiggle=2;curveFitting=1;html=1;fontFamily=Helvetica;fontSize=16;entryX=-0.036;entryY=0.495;entryDx=0;entryDy=0;entryPerimeter=0;" edge="1" parent="1" source="111" target="120">
                    <mxGeometry relative="1" as="geometry">
                        <mxPoint x="1607" y="592" as="targetPoint"/>
                    </mxGeometry>
                </mxCell>
                <mxCell id="125" style="edgeStyle=none;sketch=1;hachureGap=4;jiggle=2;curveFitting=1;html=1;fontFamily=Helvetica;fontSize=16;entryX=0.965;entryY=0.507;entryDx=0;entryDy=0;entryPerimeter=0;" edge="1" parent="1" source="116" target="120">
                    <mxGeometry relative="1" as="geometry"/>
                </mxCell>
                <mxCell id="126" style="edgeStyle=none;sketch=1;hachureGap=4;jiggle=2;curveFitting=1;html=1;fontFamily=Helvetica;fontSize=16;" edge="1" parent="1" source="112" target="121">
                    <mxGeometry relative="1" as="geometry"/>
                </mxCell>
                <mxCell id="127" style="edgeStyle=none;sketch=1;hachureGap=4;jiggle=2;curveFitting=1;html=1;fontFamily=Helvetica;fontSize=16;" edge="1" parent="1" source="117" target="121">
                    <mxGeometry relative="1" as="geometry"/>
                </mxCell>
                <mxCell id="128" style="edgeStyle=none;sketch=1;hachureGap=4;jiggle=2;curveFitting=1;html=1;fontFamily=Helvetica;fontSize=16;" edge="1" parent="1" source="113" target="122">
                    <mxGeometry relative="1" as="geometry"/>
                </mxCell>
                <mxCell id="130" value="" style="shape=flexArrow;endArrow=classic;html=1;sketch=1;hachureGap=4;jiggle=2;curveFitting=1;fontFamily=Helvetica;fontSize=16;" edge="1" parent="1">
                    <mxGeometry width="50" height="50" relative="1" as="geometry">
                        <mxPoint x="1510" y="534" as="sourcePoint"/>
                        <mxPoint x="1738" y="534" as="targetPoint"/>
                    </mxGeometry>
                </mxCell>
                <mxCell id="131" value="deepcopy()" style="edgeLabel;html=1;align=center;verticalAlign=middle;resizable=0;points=[];fontSize=16;fontFamily=Helvetica;" vertex="1" connectable="0" parent="130">
                    <mxGeometry x="0.3213" y="-2" relative="1" as="geometry">
                        <mxPoint x="-37" y="-23" as="offset"/>
                    </mxGeometry>
                </mxCell>
                <mxCell id="132" value="100" style="text;html=1;align=center;verticalAlign=middle;resizable=0;points=[];autosize=1;strokeColor=none;fillColor=none;fontSize=16;fontFamily=Helvetica;sketch=1;hachureGap=4;jiggle=2;curveFitting=1;fontSource=https%3A%2F%2Ffonts.googleapis.com%2Fcss%3Ffamily%3DArchitects%2BDaughter;" vertex="1" parent="1">
                    <mxGeometry x="1132" y="547.5" width="45" height="31" as="geometry"/>
                </mxCell>
                <mxCell id="133" style="edgeStyle=none;sketch=1;hachureGap=4;jiggle=2;curveFitting=1;html=1;entryX=1.044;entryY=0.511;entryDx=0;entryDy=0;entryPerimeter=0;fontFamily=Helvetica;fontSize=16;" edge="1" parent="1" source="110" target="132">
                    <mxGeometry relative="1" as="geometry"/>
                </mxCell>
                <mxCell id="134" value="list1 (3060924684544)" style="swimlane;fontStyle=0;childLayout=stackLayout;horizontal=1;startSize=30;horizontalStack=0;resizeParent=1;resizeParentMax=0;resizeLast=0;collapsible=1;marginBottom=0;whiteSpace=wrap;html=1;sketch=1;hachureGap=4;jiggle=2;curveFitting=1;fontFamily=Helvetica;fontSize=20;" vertex="1" parent="1">
                    <mxGeometry x="1235" y="724" width="276" height="150" as="geometry"/>
                </mxCell>
                <mxCell id="135" value="140732039493144" style="text;strokeColor=none;fillColor=none;align=left;verticalAlign=middle;spacingLeft=4;spacingRight=4;overflow=hidden;points=[[0,0.5],[1,0.5]];portConstraint=eastwest;rotatable=0;whiteSpace=wrap;html=1;fontSize=16;sketch=1;hachureGap=4;jiggle=2;curveFitting=1;fontFamily=Helvetica;" vertex="1" parent="134">
                    <mxGeometry y="30" width="276" height="30" as="geometry"/>
                </mxCell>
                <mxCell id="136" value="140732039490008" style="text;strokeColor=none;fillColor=none;align=left;verticalAlign=middle;spacingLeft=4;spacingRight=4;overflow=hidden;points=[[0,0.5],[1,0.5]];portConstraint=eastwest;rotatable=0;whiteSpace=wrap;html=1;fontSize=16;sketch=1;hachureGap=4;jiggle=2;curveFitting=1;fontFamily=Helvetica;" vertex="1" parent="134">
                    <mxGeometry y="60" width="276" height="30" as="geometry"/>
                </mxCell>
                <mxCell id="137" value="140732039490040" style="text;strokeColor=none;fillColor=none;align=left;verticalAlign=middle;spacingLeft=4;spacingRight=4;overflow=hidden;points=[[0,0.5],[1,0.5]];portConstraint=eastwest;rotatable=0;whiteSpace=wrap;html=1;fontSize=16;sketch=1;hachureGap=4;jiggle=2;curveFitting=1;fontFamily=Helvetica;" vertex="1" parent="134">
                    <mxGeometry y="90" width="276" height="30" as="geometry"/>
                </mxCell>
                <mxCell id="138" value="3060924682624" style="text;strokeColor=none;fillColor=none;align=left;verticalAlign=middle;spacingLeft=4;spacingRight=4;overflow=hidden;points=[[0,0.5],[1,0.5]];portConstraint=eastwest;rotatable=0;whiteSpace=wrap;html=1;fontSize=16;sketch=1;hachureGap=4;jiggle=2;curveFitting=1;fontFamily=Helvetica;" vertex="1" parent="134">
                    <mxGeometry y="120" width="276" height="30" as="geometry"/>
                </mxCell>
                <mxCell id="139" value="list2 (3060926299456)" style="swimlane;fontStyle=0;childLayout=stackLayout;horizontal=1;startSize=30;horizontalStack=0;resizeParent=1;resizeParentMax=0;resizeLast=0;collapsible=1;marginBottom=0;whiteSpace=wrap;html=1;sketch=1;hachureGap=4;jiggle=2;curveFitting=1;fontFamily=Helvetica;fontSize=20;" vertex="1" parent="1">
                    <mxGeometry x="1755" y="724" width="276" height="150" as="geometry"/>
                </mxCell>
                <mxCell id="140" value="140732039489976" style="text;strokeColor=none;fillColor=none;align=left;verticalAlign=middle;spacingLeft=4;spacingRight=4;overflow=hidden;points=[[0,0.5],[1,0.5]];portConstraint=eastwest;rotatable=0;whiteSpace=wrap;html=1;fontSize=16;sketch=1;hachureGap=4;jiggle=2;curveFitting=1;fontFamily=Helvetica;" vertex="1" parent="139">
                    <mxGeometry y="30" width="276" height="30" as="geometry"/>
                </mxCell>
                <mxCell id="141" value="140732039490008" style="text;strokeColor=none;fillColor=none;align=left;verticalAlign=middle;spacingLeft=4;spacingRight=4;overflow=hidden;points=[[0,0.5],[1,0.5]];portConstraint=eastwest;rotatable=0;whiteSpace=wrap;html=1;fontSize=16;sketch=1;hachureGap=4;jiggle=2;curveFitting=1;fontFamily=Helvetica;" vertex="1" parent="139">
                    <mxGeometry y="60" width="276" height="30" as="geometry"/>
                </mxCell>
                <mxCell id="142" value="140732039490040" style="text;strokeColor=none;fillColor=none;align=left;verticalAlign=middle;spacingLeft=4;spacingRight=4;overflow=hidden;points=[[0,0.5],[1,0.5]];portConstraint=eastwest;rotatable=0;whiteSpace=wrap;html=1;fontSize=16;sketch=1;hachureGap=4;jiggle=2;curveFitting=1;fontFamily=Helvetica;" vertex="1" parent="139">
                    <mxGeometry y="90" width="276" height="30" as="geometry"/>
                </mxCell>
                <mxCell id="143" value="3060926299584" style="text;strokeColor=none;fillColor=none;align=left;verticalAlign=middle;spacingLeft=4;spacingRight=4;overflow=hidden;points=[[0,0.5],[1,0.5]];portConstraint=eastwest;rotatable=0;whiteSpace=wrap;html=1;fontSize=16;sketch=1;hachureGap=4;jiggle=2;curveFitting=1;fontFamily=Helvetica;" vertex="1" parent="139">
                    <mxGeometry y="120" width="276" height="30" as="geometry"/>
                </mxCell>
                <mxCell id="144" value="1" style="text;html=1;align=center;verticalAlign=middle;resizable=0;points=[];autosize=1;strokeColor=none;fillColor=none;fontSize=16;fontFamily=Helvetica;sketch=1;hachureGap=4;jiggle=2;curveFitting=1;" vertex="1" parent="1">
                    <mxGeometry x="1619.5" y="754" width="27" height="31" as="geometry"/>
                </mxCell>
                <mxCell id="145" value="2" style="text;html=1;align=center;verticalAlign=middle;resizable=0;points=[];autosize=1;strokeColor=none;fillColor=none;fontSize=16;fontFamily=Helvetica;sketch=1;hachureGap=4;jiggle=2;curveFitting=1;fontSource=https%3A%2F%2Ffonts.googleapis.com%2Fcss%3Ffamily%3DArchitects%2BDaughter;" vertex="1" parent="1">
                    <mxGeometry x="1619.5" y="783.5" width="27" height="31" as="geometry"/>
                </mxCell>
                <mxCell id="146" value="3" style="text;html=1;align=center;verticalAlign=middle;resizable=0;points=[];autosize=1;strokeColor=none;fillColor=none;fontSize=16;fontFamily=Helvetica;sketch=1;hachureGap=4;jiggle=2;curveFitting=1;fontSource=https%3A%2F%2Ffonts.googleapis.com%2Fcss%3Ffamily%3DArchitects%2BDaughter;" vertex="1" parent="1">
                    <mxGeometry x="1619.5" y="815" width="27" height="31" as="geometry"/>
                </mxCell>
                <mxCell id="147" value="[ 100, 200, 300, 400 ]" style="text;html=1;align=center;verticalAlign=middle;resizable=0;points=[];autosize=1;strokeColor=none;fillColor=none;fontSize=16;fontFamily=Helvetica;sketch=1;hachureGap=4;jiggle=2;curveFitting=1;fontSource=https%3A%2F%2Ffonts.googleapis.com%2Fcss%3Ffamily%3DArchitects%2BDaughter;" vertex="1" parent="1">
                    <mxGeometry x="1549" y="846" width="169" height="31" as="geometry"/>
                </mxCell>
                <mxCell id="148" style="edgeStyle=none;sketch=1;hachureGap=4;jiggle=2;curveFitting=1;html=1;fontFamily=Helvetica;fontSize=16;" edge="1" parent="1" source="140">
                    <mxGeometry relative="1" as="geometry">
                        <mxPoint x="1646.9999999999995" y="770" as="targetPoint"/>
                    </mxGeometry>
                </mxCell>
                <mxCell id="149" style="edgeStyle=none;sketch=1;hachureGap=4;jiggle=2;curveFitting=1;html=1;fontFamily=Helvetica;fontSize=16;entryX=-0.036;entryY=0.495;entryDx=0;entryDy=0;entryPerimeter=0;" edge="1" parent="1" source="136" target="145">
                    <mxGeometry relative="1" as="geometry">
                        <mxPoint x="1616" y="797" as="targetPoint"/>
                    </mxGeometry>
                </mxCell>
                <mxCell id="150" style="edgeStyle=none;sketch=1;hachureGap=4;jiggle=2;curveFitting=1;html=1;fontFamily=Helvetica;fontSize=16;entryX=0.965;entryY=0.507;entryDx=0;entryDy=0;entryPerimeter=0;" edge="1" parent="1" source="141" target="145">
                    <mxGeometry relative="1" as="geometry"/>
                </mxCell>
                <mxCell id="151" style="edgeStyle=none;sketch=1;hachureGap=4;jiggle=2;curveFitting=1;html=1;fontFamily=Helvetica;fontSize=16;" edge="1" parent="1" source="137" target="146">
                    <mxGeometry relative="1" as="geometry"/>
                </mxCell>
                <mxCell id="152" style="edgeStyle=none;sketch=1;hachureGap=4;jiggle=2;curveFitting=1;html=1;fontFamily=Helvetica;fontSize=16;" edge="1" parent="1" source="142" target="146">
                    <mxGeometry relative="1" as="geometry"/>
                </mxCell>
                <mxCell id="153" style="edgeStyle=none;sketch=1;hachureGap=4;jiggle=2;curveFitting=1;html=1;fontFamily=Helvetica;fontSize=16;" edge="1" parent="1" source="138" target="147">
                    <mxGeometry relative="1" as="geometry"/>
                </mxCell>
                <mxCell id="155" value="" style="shape=flexArrow;endArrow=classic;html=1;sketch=1;hachureGap=4;jiggle=2;curveFitting=1;fontFamily=Helvetica;fontSize=16;" edge="1" parent="1">
                    <mxGeometry width="50" height="50" relative="1" as="geometry">
                        <mxPoint x="1519" y="739" as="sourcePoint"/>
                        <mxPoint x="1747.0000000000005" y="739" as="targetPoint"/>
                    </mxGeometry>
                </mxCell>
                <mxCell id="156" value="deepcopy()" style="edgeLabel;html=1;align=center;verticalAlign=middle;resizable=0;points=[];fontSize=16;fontFamily=Helvetica;" vertex="1" connectable="0" parent="155">
                    <mxGeometry x="0.3213" y="-2" relative="1" as="geometry">
                        <mxPoint x="-37" y="-23" as="offset"/>
                    </mxGeometry>
                </mxCell>
                <mxCell id="157" value="100" style="text;html=1;align=center;verticalAlign=middle;resizable=0;points=[];autosize=1;strokeColor=none;fillColor=none;fontSize=16;fontFamily=Helvetica;sketch=1;hachureGap=4;jiggle=2;curveFitting=1;fontSource=https%3A%2F%2Ffonts.googleapis.com%2Fcss%3Ffamily%3DArchitects%2BDaughter;" vertex="1" parent="1">
                    <mxGeometry x="1141" y="752.5" width="45" height="31" as="geometry"/>
                </mxCell>
                <mxCell id="158" style="edgeStyle=none;sketch=1;hachureGap=4;jiggle=2;curveFitting=1;html=1;entryX=1.044;entryY=0.511;entryDx=0;entryDy=0;entryPerimeter=0;fontFamily=Helvetica;fontSize=16;" edge="1" parent="1" source="135" target="157">
                    <mxGeometry relative="1" as="geometry"/>
                </mxCell>
                <mxCell id="159" value="[ 100, 200, 300 ]" style="text;html=1;align=center;verticalAlign=middle;resizable=0;points=[];autosize=1;strokeColor=none;fillColor=none;fontSize=16;fontFamily=Helvetica;sketch=1;hachureGap=4;jiggle=2;curveFitting=1;fontSource=https%3A%2F%2Ffonts.googleapis.com%2Fcss%3Ffamily%3DArchitects%2BDaughter;" vertex="1" parent="1">
                    <mxGeometry x="2084" y="397" width="134" height="31" as="geometry"/>
                </mxCell>
                <mxCell id="160" style="edgeStyle=none;sketch=1;hachureGap=4;jiggle=2;curveFitting=1;html=1;entryX=-0.004;entryY=0.519;entryDx=0;entryDy=0;entryPerimeter=0;fontFamily=Helvetica;fontSize=16;" edge="1" parent="1" source="94" target="159">
                    <mxGeometry relative="1" as="geometry"/>
                </mxCell>
                <mxCell id="161" value="[ 100, 200, 300 ]" style="text;html=1;align=center;verticalAlign=middle;resizable=0;points=[];autosize=1;strokeColor=none;fillColor=none;fontSize=16;fontFamily=Helvetica;sketch=1;hachureGap=4;jiggle=2;curveFitting=1;fontSource=https%3A%2F%2Ffonts.googleapis.com%2Fcss%3Ffamily%3DArchitects%2BDaughter;" vertex="1" parent="1">
                    <mxGeometry x="2084" y="638" width="134" height="31" as="geometry"/>
                </mxCell>
                <mxCell id="162" style="edgeStyle=none;sketch=1;hachureGap=4;jiggle=2;curveFitting=1;html=1;entryX=-0.004;entryY=0.519;entryDx=0;entryDy=0;entryPerimeter=0;fontFamily=Helvetica;fontSize=16;" edge="1" parent="1" target="161">
                    <mxGeometry relative="1" as="geometry">
                        <mxPoint x="2021" y="654.061267858568" as="sourcePoint"/>
                    </mxGeometry>
                </mxCell>
                <mxCell id="163" value="[ 100, 200, 300 ]" style="text;html=1;align=center;verticalAlign=middle;resizable=0;points=[];autosize=1;strokeColor=none;fillColor=none;fontSize=16;fontFamily=Helvetica;sketch=1;hachureGap=4;jiggle=2;curveFitting=1;fontSource=https%3A%2F%2Ffonts.googleapis.com%2Fcss%3Ffamily%3DArchitects%2BDaughter;" vertex="1" parent="1">
                    <mxGeometry x="2088" y="843" width="134" height="31" as="geometry"/>
                </mxCell>
                <mxCell id="164" style="edgeStyle=none;sketch=1;hachureGap=4;jiggle=2;curveFitting=1;html=1;fontFamily=Helvetica;fontSize=16;" edge="1" parent="1" source="143" target="163">
                    <mxGeometry relative="1" as="geometry"/>
                </mxCell>
            </root>
        </mxGraphModel>
    </diagram>
</mxfile>